<?xml version="1.0" standalone="no"?><!DOCTYPE svg PUBLIC "-//W3C//DTD SVG 1.1//EN" "http://www.w3.org/Graphics/SVG/1.1/DTD/svg11.dtd"><svg t="1689775889920" class="icon" viewBox="0 0 1024 1024" version="1.1" xmlns="http://www.w3.org/2000/svg" p-id="25703" xmlns:xlink="http://www.w3.org/1999/xlink" width="200" height="200"><path d="M518.4 512m-414 0a414 414 0 1 0 828 0 414 414 0 1 0-828 0Z" fill="#F0C48A" p-id="25704"></path><path d="M435.6 604H102.2c-33.2 0-58-30.2-51.6-62.8l22-111.2c4.8-24.6 26.4-42.4 51.6-42.4h289.6c25 0 46.6 17.8 51.6 42.4l22 111.2c6.2 32.6-18.6 62.8-51.8 62.8z" fill="#D3E6F8" p-id="25705"></path><path d="M399.4 387.8L435.6 604s50-3.4 51.6-62.8c1.4-59.2-33.6-138.8-33.6-138.8s-6.2-14.6-54.2-14.6z" fill="#A4CFF2" p-id="25706"></path><path d="M240 668.2h58v344.2h-58z" fill="#FFFFFF" p-id="25707"></path><path d="M269 668.2H298v344.2h-29zM171 387.8L149.4 604M366.8 387.8L388.4 604" fill="#D3E6F8" p-id="25708"></path><path d="M328.8 668.2h-119.8c-24 0-43.4-19.4-43.4-43.4V604h206.6v20.8c0 24-19.4 43.4-43.4 43.4z" fill="#7BABF1" p-id="25709"></path><path d="M435.6 615.8H102.2c-19.4 0-37.4-8.6-49.6-23.4-12.2-15-17.2-34.4-13.4-53.2l22-111.2c6-30 32.4-51.8 63-51.8h289.6c30.6 0 57.2 21.8 63 51.8l22 111.2c3.8 19-1.2 38.4-13.4 53.2-12.2 14.8-30.4 23.4-49.8 23.4zM124 399.4c-19.4 0-36.2 13.8-40 33l-22 111.2c-2.4 12 0.8 24.4 8.6 33.8 7.8 9.4 19.2 15 31.6 15h333.6c12.2 0 23.8-5.4 31.6-15 7.8-9.4 10.8-21.8 8.6-33.8l-22-111.2c-3.8-19-20.6-33-40-33H124z" fill="#4C4372" p-id="25710"></path><path d="M149.4 615.8h-1.2c-6.4-0.6-11.2-6.4-10.4-12.8l21.6-216.2c0.6-6.4 6.4-11.2 12.8-10.4 6.4 0.6 11.2 6.4 10.4 12.8l-21.6 216c-0.6 6-5.6 10.6-11.6 10.6zM388.4 615.8c-6 0-11-4.6-11.6-10.6l-21.6-216.2c-0.6-6.4 4-12.2 10.4-12.8 6.4-0.6 12.2 4 12.8 10.4L400 602.8c0.6 6.4-4 12.2-10.4 12.8-0.4 0.2-0.8 0.2-1.2 0.2zM269 615.8c-6.4 0-11.8-5.2-11.8-11.8V387.8c0-6.4 5.2-11.8 11.8-11.8 6.4 0 11.8 5.2 11.8 11.8V604c-0.2 6.6-5.4 11.8-11.8 11.8z" fill="#4C4372" p-id="25711"></path><path d="M474.2 498.4H61.4c-6.4 0-11.8-5.2-11.8-11.8s5.2-11.8 11.8-11.8h413c6.4 0 11.8 5.2 11.8 11.8s-5.4 11.8-12 11.8z" fill="#4C4372" p-id="25712"></path><path d="M328.8 679.8h-119.8c-30.4 0-55.2-24.8-55.2-55.2V604c0-6.4 5.2-11.8 11.8-11.8h206.6c6.4 0 11.8 5.2 11.8 11.8v20.8c0 30.4-24.8 55-55.2 55z m-151.4-64v9c0 17.4 14.2 31.8 31.8 31.8h119.8c17.4 0 31.8-14.2 31.8-31.8v-9H177.4z" fill="#4C4372" p-id="25713"></path><path d="M297.8 1024h-58c-6.4 0-11.8-5.2-11.8-11.8v-344c0-6.4 5.2-11.8 11.8-11.8h58c6.4 0 11.8 5.2 11.8 11.8v344.2c0 6.4-5.2 11.6-11.8 11.6z m-46.2-23.4H286V679.8h-34.4v320.8z" fill="#4C4372" p-id="25714"></path><path d="M268.4 227m-108.8 0a108.8 108.8 0 1 0 217.6 0 108.8 108.8 0 1 0-217.6 0Z" fill="#E8677D" p-id="25715"></path><path d="M268.4 118.2c-60 0-108.8 48.6-108.8 108.8 0 21 6 40.8 16.4 57.4 18 13 40 20.8 64 20.8 60 0 108.8-48.6 108.8-108.8 0-21-6-40.8-16.4-57.4-18-13-40.2-20.8-64-20.8z" fill="#FD919E" p-id="25716"></path><path d="M268.4 347.4c-66.4 0-120.4-54-120.4-120.4s54-120.4 120.4-120.4 120.4 54 120.4 120.4-54 120.4-120.4 120.4z m0-217.4c-53.4 0-97 43.6-97 97s43.6 97 97 97 97-43.6 97-97S321.8 130 268.4 130zM268.4 83.4c-6.4 0-11.8-5.2-11.8-11.8V11.8c0-6.4 5.2-11.8 11.8-11.8s11.8 5.2 11.8 11.8v59.8c-0.2 6.4-5.4 11.8-11.8 11.8zM378.2 128.8c-3 0-6-1.2-8.2-3.4-4.6-4.6-4.6-12 0-16.6l42.4-42.4c4.6-4.6 12-4.6 16.6 0 4.6 4.6 4.6 12 0 16.6l-42.4 42.4c-2.4 2.4-5.4 3.4-8.4 3.4zM158.6 128.8c-3 0-6-1.2-8.2-3.4L107.8 83c-4.6-4.6-4.6-12 0-16.6 4.6-4.6 12-4.6 16.6 0l42.4 42.4c4.6 4.6 4.6 12 0 16.6-2.2 2.4-5.2 3.4-8.2 3.4zM113 238.8H53.2c-6.4 0-11.8-5.2-11.8-11.8 0-6.4 5.2-11.8 11.8-11.8h59.8c6.4 0 11.8 5.2 11.8 11.8 0 6.4-5.4 11.8-11.8 11.8zM483.6 238.8h-59.8c-6.4 0-11.8-5.2-11.8-11.8 0-6.4 5.2-11.8 11.8-11.8h59.8c6.4 0 11.8 5.2 11.8 11.8 0 6.4-5.4 11.8-11.8 11.8z" fill="#4C4372" p-id="25717"></path><path d="M650.8 373c-18.2 0-33 14.8-33 33v53.2H684V406c0-18.2-14.8-33-33.2-33zM869.2 373c-18.2 0-33 14.8-33 33v53.2h66.2V406c0-18.2-14.8-33-33.2-33z" fill="#7BABF1" p-id="25718"></path><path d="M918.4 1012.2H601.6c-31 0-56-25-56-56V515.4c0-31 25-56 56-56h316.8c31 0 56 25 56 56v440.8c0 31-25 56-56 56z" fill="#D3E6F8" p-id="25719"></path><path d="M795.4 772.6l-99.2 99.2h49.6l-38 106.4 116.2-102.8h-53.6z" fill="#FD919E" p-id="25720"></path><path d="M707.8 989.8c-2.2 0-4.6-0.6-6.6-2-4.4-3-6.2-8.6-4.4-13.6l32.4-90.8h-33c-4.8 0-9-2.8-10.8-7.2-1.8-4.4-0.8-9.4 2.6-12.8l99.2-99.2c3.8-3.8 9.4-4.6 14-2 4.6 2.6 6.8 7.8 5.6 13l-21.4 88.4H824c4.8 0 9.2 3 11 7.6 1.8 4.6 0.4 9.8-3.2 13l-116.2 102.8c-2.2 1.8-5 2.8-7.8 2.8z m16.6-129.8h21.4c3.8 0 7.4 1.8 9.6 5 2.2 3.2 2.8 7.2 1.4 10.6l-22.6 63.4 58.8-52h-22.6c-3.6 0-7-1.6-9.2-4.4-2.2-2.8-3-6.6-2.2-10l15-62.2-49.6 49.6zM684 471.2h-66.2c-6.4 0-11.8-5.2-11.8-11.8v-53.2c0-24.8 20.2-44.8 44.8-44.8 24.8 0 44.8 20.2 44.8 44.8v53.2c0 6.4-5.2 11.8-11.6 11.8z m-54.6-23.6h42.8V406c0-11.8-9.6-21.4-21.4-21.4-11.8 0-21.4 9.6-21.4 21.4v41.6zM902.4 471.2h-66.2c-6.4 0-11.8-5.2-11.8-11.8v-53.2c0-24.8 20.2-44.8 44.8-44.8 24.8 0 44.8 20.2 44.8 44.8v53.2c0 6.4-5.2 11.8-11.6 11.8z m-54.6-23.6h42.8V406c0-11.8-9.6-21.4-21.4-21.4-11.8 0-21.4 9.6-21.4 21.4v41.6z" fill="#4C4372" p-id="25721"></path><path d="M885.8 1012.2h29.4c32.8 0 59.4-26.6 59.4-59.4v-434c0-32.8-26.6-59.4-59.4-59.4h-29.4v552.8z" fill="#A4CFF2" p-id="25722"></path><path d="M918.4 1024H601.6c-37.4 0-67.8-30.4-67.8-67.8V515.4c0-37.4 30.4-67.8 67.8-67.8h316.8c37.4 0 67.8 30.4 67.8 67.8v440.8c0 37.4-30.4 67.8-67.8 67.8zM601.6 471.2c-24.4 0-44.2 19.8-44.2 44.2v440.8c0 24.4 19.8 44.2 44.2 44.2h316.8c24.4 0 44.2-19.8 44.2-44.2V515.4c0-24.4-19.8-44.2-44.2-44.2H601.6z" fill="#4C4372" p-id="25723"></path><path d="M882 735.8H638.2c-19.8 0-35.8-16-35.8-35.8v-147.8c0-19.8 16-35.8 35.8-35.8H882c19.8 0 35.8 16 35.8 35.8V700c0 19.8-16 35.8-35.8 35.8z" fill="#FD919E" p-id="25724"></path><path d="M866 735.8h14.6c20.6 0 37.2-16.6 37.2-37.2v-144c0-20.6-16.6-37.2-37.2-37.2H866v218.4z" fill="#E8677D" p-id="25725"></path><path d="M882 747.6H638.2c-26.2 0-47.6-21.4-47.6-47.6v-147.8c0-26.2 21.4-47.6 47.6-47.6H882c26.2 0 47.6 21.4 47.6 47.6V700c-0.2 26.2-21.4 47.6-47.6 47.6zM638.2 528.2c-13.2 0-24.2 10.8-24.2 24.2V700c0 13.2 10.8 24.2 24.2 24.2H882c13.2 0 24.2-10.8 24.2-24.2v-147.8c0-13.2-10.8-24.2-24.2-24.2H638.2z" fill="#4C4372" p-id="25726"></path></svg>