<?xml version="1.0" standalone="no"?><!DOCTYPE svg PUBLIC "-//W3C//DTD SVG 1.1//EN" "http://www.w3.org/Graphics/SVG/1.1/DTD/svg11.dtd"><svg filter="url(#saturation)" opacity="0.9" t="1689775874125" class="icon" viewBox="0 0 1024 1024" version="1.1" xmlns="http://www.w3.org/2000/svg" p-id="25537" xmlns:xlink="http://www.w3.org/1999/xlink" width="200" height="200"><path d="M694.07 297.214l-22.234-20.232-61.808 94.552c-1.152 1.77-2.714 2.782-4.274 2.782-2.852 0-5.5-3.418-5.902-7.62l-11.008-114.838-27.13 14.832-49.758-54.95-49.752 54.95-27.134-14.83-11.008 114.834c-0.402 4.204-3.05 7.622-5.902 7.622-1.56 0-3.122-1.012-4.274-2.784l-61.81-94.55-22.234 20.232-75.236-53.608 89.664 234.264h335.372l89.666-234.264-75.238 53.608z m-24.46 166.08H354.298l-68.816-179.79 45.478 32.398 18.276-16.63 52.442 80.232c3.838 5.878 9.998 9.388 16.478 9.388 10.496 0 19.272-8.944 20.412-20.806l8.9-92.838 17.826 9.744 46.66-51.534 46.664 51.534 17.822-9.742 8.9 92.84c1.138 11.86 9.916 20.804 20.412 20.804 6.48 0 12.64-3.508 16.478-9.386l52.442-80.234 18.276 16.63 45.478-32.398-68.816 179.788z" fill="#4A555F" p-id="25538"></path><path d="M678.542 337.808l-39.222 60.018c-8.178 12.504-20.412 19.676-33.564 19.676-21.734 0-40.026-19.75-42.55-45.96l-5.282-55.102-3.312 1.812-42.654-47.106-42.654 47.104-3.318-1.812-5.282 55.096c-2.508 26.208-20.798 45.97-42.544 45.97-13.152 0-25.388-7.172-33.564-19.676l-39.228-60.018-10.592 9.636 33.39 87.242h287.578l33.392-87.238-10.594-9.642z" fill="#FFD452" p-id="25539"></path><path d="M341.996 463.294v59.214h339.918v-59.214H341.996z m325.342 44.638H356.572v-30.062h310.766v30.062zM167.524 741.884l-0.812-8.02a229.992 229.992 0 0 1-1.13-19.726l-0.048-69.866-7.194 0.004v-7.288H105.342v-134.972H0.426l54.062 124.97L0 741.884h167.524zM22.614 516.592h68.152v134.972h60.2l0.042 62.682c0.062 4.376 0.242 8.744 0.532 13.062H23.04l47.446-100.046-47.872-110.67z" fill="#4A555F" p-id="25540"></path><path d="M72.35 535.008H50.632l21.718 50.238v-50.238z m-1.58 134.776l-18.632 39.112h81.332v-39.112h-62.7z" fill="#F58E6F" p-id="25541"></path><path d="M969.512 626.988l54.062-124.97H918.66v134.972h-60.32l-0.17 7.114c-0.024 1.074-0.01 2.1 0 3.118 0.014 0.856 0.028 1.708 0 2.99l0.052 63.49a237.27 237.27 0 0 1-1.13 20.172l-0.802 8.012H1024l-54.488-114.898z m-96.768 24.576h60.49v-134.972h68.152l-47.874 110.67 47.446 100.046h-128.704c0.294-4.434 0.474-8.946 0.542-13.512l-0.052-62.232z" fill="#4A555F" p-id="25542"></path><path d="M951.65 535.008v50.238l21.716-50.238h-21.716z m-61.122 134.776v39.112h81.332l-18.656-39.112h-62.676z" fill="#F58E6F" p-id="25543"></path><path d="M709.304 372.64v14.574h209.36v249.774H105.342V387.214h209.254v-14.574H90.766v278.924H933.24V372.64z" fill="#4A555F" p-id="25544"></path><path d="M728.532 404.218l-29.622 71.748v64.404H324.996v-64.404l-29.624-71.748H122.346v215.574h779.312V404.218z" fill="#F58E6F" p-id="25545"></path><path d="M598.728 806.472l-59.828-8.856-26.912-54.164-26.91 54.164-59.83 8.856 43.198 42.332-10.066 59.636 53.608-28 53.608 28-10.064-59.636zM744.794 738.862l-33.978-5.028-15.282-30.762-15.284 30.762-33.978 5.028 24.532 24.04-5.716 33.87 30.446-15.902 30.444 15.902-5.716-33.87zM377.704 738.862l-33.976-5.028-15.284-30.762-15.284 30.762-33.976 5.028 24.53 24.04L298 796.772l30.444-15.902 30.444 15.902-5.716-33.87z" fill="#FFD452" p-id="25546"></path><path d="M614.308 801.408l-70.572-10.446-31.746-63.89-31.746 63.89-70.568 10.446 50.954 49.936-11.872 70.35 63.232-33.03 63.236 33.03-11.876-70.35 50.958-49.936z m-102.32 70.81l-43.978 22.972 8.256-48.928-35.438-34.728 49.084-7.266 22.078-44.436 22.076 44.436 49.088 7.266-35.442 34.728 8.26 48.928-43.984-22.972zM760.372 733.802l-44.724-6.622-20.118-40.484-20.118 40.484-44.718 6.622 32.292 31.642-7.524 44.582 40.068-20.934 40.074 20.934-7.524-44.582 32.292-31.642z m-64.84 38.844l-20.814 10.874 3.91-23.158-16.778-16.44 23.234-3.438 10.448-21.036 10.458 21.036 23.23 3.438-16.778 16.44 3.91 23.158-20.82-10.874zM393.282 733.8l-44.718-6.618-20.118-40.486-20.118 40.486-44.724 6.618 32.292 31.644-7.524 44.582 40.074-20.934 40.068 20.934-7.52-44.582 32.288-31.644z m-64.836 38.846l-20.82 10.874 3.91-23.158-16.778-16.438 23.24-3.44 10.448-21.034 10.448 21.034 23.234 3.44-16.772 16.438 3.904 23.158-20.814-10.874zM512.002 151.294c-20.326 0-36.866 16.538-36.866 36.866 0 20.326 16.54 36.864 36.866 36.864s36.866-16.538 36.866-36.864c0-20.328-16.54-36.866-36.866-36.866z m0 59.154c-12.288 0-22.29-10-22.29-22.288 0-12.292 10.002-22.29 22.29-22.29s22.29 10 22.29 22.29c0 12.288-10 22.288-22.29 22.288zM254.994 184.362c-20.326 0-36.866 16.538-36.866 36.864 0 20.328 16.54 36.866 36.866 36.866s36.866-16.538 36.866-36.866c-0.002-20.328-16.54-36.864-36.866-36.864z m0 59.154c-12.29 0-22.29-10-22.29-22.29 0-12.288 10.002-22.288 22.29-22.288 12.288 0 22.29 10 22.29 22.288 0 12.29-10.002 22.29-22.29 22.29zM775.318 184.362c-20.326 0-36.866 16.538-36.866 36.864 0 20.328 16.54 36.866 36.866 36.866s36.866-16.538 36.866-36.866-16.54-36.864-36.866-36.864z m0 59.154c-12.288 0-22.29-10-22.29-22.29 0-12.288 10.002-22.288 22.29-22.288 12.29 0 22.29 10 22.29 22.288 0 12.29-10.002 22.29-22.29 22.29z" fill="#4A555F" p-id="25547"></path><path d="M787.056 118.154c-72.56-74.33-170.244-115.268-275.062-115.268-104.82 0-202.518 40.938-275.102 115.264-55.84 57.154-84.722 121.666-85.836 191.856v77.204h174.134l-39.704-103.698 45.454 32.39 18.282-16.618 52.476 80.226a22.256 22.256 0 0 0 6.686 6.588l1.774 1.112h15.922l1.728-1.04c5.988-3.592 10.006-10.356 10.746-18.09l8.906-92.828 17.84 9.748 46.65-51.54L558.6 285l17.84-9.75 8.91 92.824c0.526 5.518 2.738 10.636 6.158 14.34a19.776 19.776 0 0 0 4.688 3.786l1.712 1.006h15.762l1.732-1.04a21.14 21.14 0 0 0 6.812-6.678l52.462-80.208 18.282 16.618 45.454-32.39-39.704 103.698h174.134v-77.32c-1.112-70.042-29.974-134.554-85.786-191.732z m71.212 254.48H719.9l49.402-129.024-75.232 53.604-22.238-20.21-61.848 94.564a7.328 7.328 0 0 1-0.826 1.068h-6.846l-0.034-0.038c-1.314-1.424-2.196-3.576-2.42-5.904l-11.018-114.824-27.148 14.834-49.744-54.96-49.744 54.96-27.148-14.834-11.012 114.824c-0.228 2.396-1.134 4.536-2.462 5.942h-6.808a8.324 8.324 0 0 1-0.892-1.122l-61.814-94.51-22.238 20.21-75.23-53.604 49.4 129.024H165.632v-62.512c1.054-66.224 28.534-127.384 81.688-181.788C317.138 56.836 411.13 17.46 511.992 17.46c100.858 0 194.84 39.376 264.634 110.874 53.122 54.424 80.588 115.584 81.642 181.67v62.63zM872.74 636.988H150.98l0.038 77.278c1.13 70.064 30.016 134.564 85.864 191.708 72.556 74.244 170.2 115.134 274.962 115.136h0.01c104.88 0 202.626-40.978 275.21-115.376 55.816-57.204 84.654-121.738 85.718-191.926l-0.042-76.82zM776.636 895.56c-69.828 71.566-163.862 110.98-264.792 110.978-100.8-0.002-194.75-39.334-264.534-110.748-53.16-54.39-80.654-115.542-81.718-181.64l-0.028-62.584h692.608l0.034 62.138c-1 66.22-28.448 127.406-81.57 181.856z" fill="#4A555F" p-id="25548"></path><path d="M265.236 887.492c3.54 3.49 7.14 6.894 10.804 10.214l9.794-10.798a343.496 343.496 0 0 1-10.368-9.798l-10.23 10.382z m22.034 19.97a350.86 350.86 0 0 0 11.634 9.27l8.844-11.586a334.776 334.776 0 0 1-11.15-8.886l-9.328 11.202z m-31.228-51.208l-11.102 9.446a331.744 331.744 0 0 0 9.922 11.126l10.656-9.94a316.666 316.666 0 0 1-9.476-10.632z m106.418 98.942a342.2 342.2 0 0 0 13.622 6.002l5.588-13.46a330.982 330.982 0 0 1-13.052-5.75l-6.158 13.208z m-123.756-121.45l-11.984 8.298a296.092 296.092 0 0 0 8.82 12.064l11.548-8.896a281.324 281.324 0 0 1-8.384-11.466z m151.242 132.858a348.82 348.82 0 0 0 14.092 4.814l4.414-13.892a328.654 328.654 0 0 1-13.494-4.61l-5.012 13.688z m-53.896-25.152a339.346 339.346 0 0 0 13.062 7.158l6.718-12.934a316.366 316.366 0 0 1-12.492-6.85l-7.288 12.626z m-25.122-15.952a343.292 343.292 0 0 0 12.394 8.248l7.81-12.302a329.08 329.08 0 0 1-11.862-7.902l-8.342 11.956z m-107.168-168.428l-14.176 3.392a228.446 228.446 0 0 0 3.99 14.518l13.92-4.328a211.148 211.148 0 0 1-3.734-13.582z m-5.712-85.28l-14.576 0.01 0.01 14.576 14.576-0.01-0.01-14.576z m642.238 10.478l-0.01-14.576-14.576 0.01 0.01 14.576 14.576-0.01z m-14.562 29.16l14.576-0.01-0.01-14.576-14.576 0.01 0.01 14.576z m-627.658 0.332l-0.004-10.818-14.576 0.004 0.004 10.954c0.024 1.292 0.058 2.582 0.1 3.87l14.566-0.498c-0.042-1.212-0.066-2.43-0.09-3.512z m14.054 72.198l-13.598 5.248a239.028 239.028 0 0 0 5.854 13.854l13.238-6.092c-1.954-4.246-3.8-8.624-5.494-13.01z m11.79 25.654l-12.84 6.894a259.368 259.368 0 0 0 7.468 12.996l12.422-7.62a248.688 248.688 0 0 1-7.05-12.27zM199.092 729.34l-14.51 1.432c0.494 4.962 1.166 9.988 1.998 14.932l14.376-2.424a200.82 200.82 0 0 1-1.864-13.94z m219.226 246.276c4.778 1.3 9.598 2.498 14.452 3.594l3.208-14.22a328.72 328.72 0 0 1-13.836-3.438l-3.824 14.064z m227.404-29.434l5.76 13.39c4.554-1.96 9.068-4.014 13.542-6.166l-6.32-13.134a339.51 339.51 0 0 1-12.982 5.91z m115.228-82.284l10.78 9.808a324.558 324.558 0 0 0 9.774-11.252l-11.216-9.304a314.072 314.072 0 0 1-9.338 10.748z m-313.598 118.28c4.872 0.888 9.77 1.674 14.694 2.36l2.012-14.438a346.934 346.934 0 0 1-14.096-2.26l-2.61 14.338z m293.514-98.004l9.908 10.69a350.464 350.464 0 0 0 10.704-10.36l-10.354-10.258a332.972 332.972 0 0 1-10.258 9.928z m53.994-65.732l12.544 7.42a257.71 257.71 0 0 0 7.26-13.12l-12.954-6.68a241.896 241.896 0 0 1-6.85 12.38z m-15.77 23.548l11.662 8.74a282.902 282.902 0 0 0 8.654-12.198l-12.108-8.114a271.816 271.816 0 0 1-8.208 11.572z m44.39-102.604l14.414 2.154c0.736-4.92 1.31-9.956 1.712-14.974l-14.528-1.162a206.926 206.926 0 0 1-1.598 13.982z m-6.034 27.474l13.998 4.076c1.4-4.804 2.652-9.712 3.72-14.584l-14.234-3.126a213.748 213.748 0 0 1-3.484 13.634z m-9.652 26.458l13.342 5.87a233.306 233.306 0 0 0 5.614-13.956l-13.694-4.996a216.17 216.17 0 0 1-5.262 13.082z m-88.64 109.368l8.968 11.488a344.02 344.02 0 0 0 11.54-9.42l-9.46-11.088a337.914 337.914 0 0 1-11.048 9.02z m-183.856 69.922l0.978 14.542c4.958-0.334 9.896-0.768 14.808-1.302l-1.576-14.49c-4.71 0.512-9.45 0.93-14.21 1.25z m-28.544 0.746l-0.218 14.576a361.22 361.22 0 0 0 14.888-0.088l-0.38-14.57c-4.752 0.118-9.526 0.154-14.29 0.082z m56.894-3.828l2.182 14.41a356.24 356.24 0 0 0 14.652-2.528l-2.78-14.31c-4.66 0.906-9.348 1.714-14.054 2.428z m-86.828 16.754c4.924 0.48 9.878 0.854 14.846 1.13l0.806-14.552a345.422 345.422 0 0 1-14.238-1.086l-1.414 14.508z m219.128-66.998l7.972 12.204a353.44 353.44 0 0 0 12.288-8.398l-8.484-11.856a330.708 330.708 0 0 1-11.776 8.05z m-104.312 44.802l3.388 14.178a347.946 347.946 0 0 0 14.396-3.762l-3.986-14.02a337.278 337.278 0 0 1-13.798 3.604z m79.778-30.272l6.89 12.846a349.14 349.14 0 0 0 12.962-7.31l-7.43-12.54a336.024 336.024 0 0 1-12.422 7.004z m-52.348 22.48l4.584 13.836c4.712-1.562 9.384-3.22 14.026-4.98l-5.172-13.626a341.14 341.14 0 0 1-13.438 4.77zM383.114 60.568l5.41 13.536a343.172 343.172 0 0 1 13.352-5.01l-4.83-13.75a349.552 349.552 0 0 0-13.932 5.224z m86.214-22.216l1.832 14.462c4.702-0.596 9.428-1.094 14.182-1.494l-1.224-14.524c-4.954 0.414-9.884 0.936-14.79 1.556z m-58.13 12.368l4.232 13.95c4.54-1.378 9.12-2.66 13.73-3.848l-3.634-14.116c-4.812 1.242-9.588 2.58-14.328 4.014z m28.808-7.41l3.036 14.258a339.6 339.6 0 0 1 14.002-2.672l-2.43-14.372c-4.896 0.828-9.768 1.756-14.608 2.786z m58.94-7.462l0.626 14.562c3.928-0.168 7.866-0.272 11.838-0.312l2.42-0.014v-14.576l-2.576 0.014c-4.12 0.042-8.218 0.148-12.308 0.326z m-142.976 36.946l6.558 13.02a330.616 330.616 0 0 1 12.868-6.134l-5.988-13.29a346.838 346.838 0 0 0-13.438 6.404z m-73.762 49.958l9.642 10.926a341.928 341.928 0 0 1 10.904-9.222l-9.186-11.32a357.68 357.68 0 0 0-11.36 9.616z m-21.464 20.632l10.532 10.074a338.396 338.396 0 0 1 10.084-10.106l-10.096-10.51a346.304 346.304 0 0 0-10.52 10.542z m69.234-56.07l7.658 12.402a332.22 332.22 0 0 1 12.288-7.22l-7.108-12.726a344.16 344.16 0 0 0-12.838 7.544z m-24.644 16.698l8.682 11.706a341.646 341.646 0 0 1 11.634-8.258l-8.18-12.062a352.784 352.784 0 0 0-12.136 8.614z m279.428-46.804c4.66 0.968 9.29 2.034 13.892 3.198l3.578-14.13a339.798 339.798 0 0 0-14.51-3.34l-2.96 14.272z m151.516 75.422a344.804 344.804 0 0 1 10.538 9.616l10.04-10.562a356.76 356.76 0 0 0-10.984-10.022l-9.594 10.968z m-45.908-33.732a332.35 332.35 0 0 1 12.004 7.688l8.122-12.1a343.854 343.854 0 0 0-12.536-8.03l-7.59 12.442z m23.67 15.882a326.91 326.91 0 0 1 11.296 8.686l9.138-11.358a345.43 345.43 0 0 0-11.8-9.07l-8.634 11.742z m53.378 27.392l-10.486 10.124a322.678 322.678 0 0 1 9.674 10.466l10.922-9.65a341.26 341.26 0 0 0-10.11-10.94zM528.144 50.334c4.768 0.18 9.522 0.46 14.258 0.834l1.158-14.528a358.58 358.58 0 0 0-14.864-0.874l-0.552 14.568z m84.274 13.856c4.56 1.36 9.086 2.816 13.574 4.368l4.764-13.774a348.84 348.84 0 0 0-14.172-4.562l-4.166 13.968z m-55.816-11.598c4.734 0.572 9.442 1.244 14.13 2.014l2.362-14.38a353.876 353.876 0 0 0-14.736-2.104l-1.756 14.47z m108.82 32.51a323.136 323.136 0 0 1 12.612 6.626l7.07-12.75a339.786 339.786 0 0 0-13.182-6.924l-6.5 13.048z m-26.048-11.592a326.3 326.3 0 0 1 13.148 5.516l5.93-13.314a345.2 345.2 0 0 0-13.726-5.762l-5.352 13.56zM183.486 341.134l0.01 14.576 14.576-0.01-0.01-14.576-14.576 0.01z m8.858-88.688c-1.4 4.792-2.656 9.706-3.73 14.604l14.234 3.122a210.006 210.006 0 0 1 3.482-13.636l-13.986-4.09z m5.704 59.528l-14.576 0.01 0.01 14.576 14.576-0.01-0.01-14.576z m-13.88-15.134l14.528 1.162c0.38-4.706 0.916-9.408 1.604-13.976l-14.414-2.168c-0.734 4.9-1.314 9.942-1.718 14.982zM826.674 252.446l-13.988 4.09c1.304 4.472 2.476 9.06 3.482 13.636l14.234-3.122a218.632 218.632 0 0 0-3.728-14.604z m6.458 29.414l-14.414 2.168c0.688 4.566 1.224 9.27 1.604 13.976l14.528-1.162a220.254 220.254 0 0 0-1.718-14.982z m-12.162 30.114l-0.01 14.576 14.576 0.01 0.01-14.576-14.576-0.01z m-0.022 43.728l14.576 0.01 0.01-14.576-14.576-0.01-0.01 14.576z" fill="#4A555F" p-id="25549"></path><filter id="saturation"><feColorMatrix type="saturate" values="0.8"/></filter></svg>